<?xml version="1.0" encoding="UTF-8" standalone="no"?>
<!-- Created with Inkscape (http://www.inkscape.org/) -->

<svg
   width="500"
   height="500"
   viewBox="0 0 132.29167 132.29167"
   version="1.1"
   id="svg5"
   inkscape:version="1.2.2 (b0a8486541, 2022-12-01)"
   sodipodi:docname="graph_save_as.svg"
   xmlns:inkscape="http://www.inkscape.org/namespaces/inkscape"
   xmlns:sodipodi="http://sodipodi.sourceforge.net/DTD/sodipodi-0.dtd"
   xmlns:xlink="http://www.w3.org/1999/xlink"
   xmlns="http://www.w3.org/2000/svg"
   xmlns:svg="http://www.w3.org/2000/svg">
  <sodipodi:namedview
     id="namedview7"
     pagecolor="#ffffff"
     bordercolor="#000000"
     borderopacity="0.25"
     inkscape:showpageshadow="2"
     inkscape:pageopacity="0.0"
     inkscape:pagecheckerboard="0"
     inkscape:deskcolor="#d1d1d1"
     inkscape:document-units="px"
     showgrid="false"
     inkscape:zoom="1.4734708"
     inkscape:cx="205.63692"
     inkscape:cy="273.50389"
     inkscape:window-width="1920"
     inkscape:window-height="1007"
     inkscape:window-x="0"
     inkscape:window-y="0"
     inkscape:window-maximized="1"
     inkscape:current-layer="layer1" />
  <defs
     id="defs2">
    <linearGradient
       inkscape:collect="always"
       id="linearGradient20871">
      <stop
         style="stop-color:#2a8d7c;stop-opacity:1;"
         offset="0"
         id="stop20867" />
      <stop
         style="stop-color:#2a8d7c;stop-opacity:0;"
         offset="1"
         id="stop20869" />
    </linearGradient>
    <inkscape:path-effect
       effect="spiro"
       id="path-effect17551"
       is_visible="true"
       lpeversion="1" />
    <linearGradient
       id="linearGradient12835"
       inkscape:swatch="solid">
      <stop
         style="stop-color:#000000;stop-opacity:1;"
         offset="0"
         id="stop12833" />
    </linearGradient>
    <linearGradient
       id="linearGradient3055"
       inkscape:swatch="solid">
      <stop
         style="stop-color:#333333;stop-opacity:1;"
         offset="0"
         id="stop3053" />
    </linearGradient>
    <linearGradient
       inkscape:collect="always"
       xlink:href="#linearGradient20871"
       id="linearGradient20873"
       x1="38.989177"
       y1="125.86868"
       x2="58.87061"
       y2="125.86868"
       gradientUnits="userSpaceOnUse" />
    <clipPath
       clipPathUnits="userSpaceOnUse"
       id="clipPath369">
      <path
         id="path371"
         style="fill:#ff0000;fill-opacity:1;fill-rule:nonzero;stroke:none;stroke-width:0.264583"
         d="M 6.9277428,7.8258791 V 125.59079 H 80.42145 c 0.02762,-0.19207 0.0509,-0.37817 0.04392,-0.53382 -0.04776,-1.06617 0.107921,-2.58787 0.188619,-3.62252 0.423984,-3.90574 0.909111,-7.80571 1.393198,-11.70471 -0.522878,-2.27641 -0.897303,-4.58772 -1.230416,-6.89829 -0.115263,-0.82126 -0.18492,-1.64897 -0.319879,-2.46755 -0.0048,0.0105 -0.0094,0.0218 -0.0155,0.016 -0.192133,-0.1774 -0.350438,-0.388418 -0.513665,-0.592729 -0.340175,-0.4258 -0.884439,-1.132663 -1.037662,-1.617991 -0.231071,-0.731909 -0.30363,-1.504836 -0.455268,-2.257227 0.462571,-1.039976 0.656259,-2.253379 1.327565,-3.158979 -0.797322,-0.372682 -1.546071,-0.805572 -1.66243,-1.582849 -0.462981,-3.092781 -0.302416,-4.588391 0.401527,-5.516975 -0.365919,-0.535599 -0.317125,-1.625846 -0.515216,-2.305804 -0.170389,-0.584878 -0.390292,-3.2033 -0.440282,-3.724836 -0.172397,-2.155696 -0.24271,-4.317929 -0.272852,-6.47971 -0.01111,-0.799436 -0.02468,-2.591094 0.0047,-3.436482 0.0164,-0.471932 0.05783,-0.943055 0.08681,-1.414383 0.06213,-0.410359 0.07584,-0.83094 0.186552,-1.230935 0.773523,-2.794648 1.85125,-3.817511 6.144329,-3.817337 1.194266,5.1e-5 2.226213,1.301898 3.022556,2.659269 1.914988,-0.130667 3.88802,0.156123 5.738667,0.616501 0.618709,0.153913 0.478218,1.186328 0.636137,1.804024 0.0061,0.02371 0.01082,0.05696 0.01654,0.0832 5.143283,0.726969 4.541396,1.246833 4.614188,5.026052 -0.128183,0.411313 -0.232103,0.830532 -0.384472,1.233514 -0.305326,0.807521 -0.715256,1.577544 -1.128614,2.334225 0.156189,0.111213 0.312129,0.222557 0.465087,0.336416 0.288835,-0.05481 0.57721,-0.11188 0.866098,-0.1664 0.357089,-0.06194 1.522817,-0.277823 2.734193,-0.384989 0.30148,-2.593227 0.20965,-5.31253 1.34101,-7.63881 0.43818,-0.900996 1.9733,-0.354687 2.96726,-0.480592 0.67735,-0.0858 1.35713,-0.14791 2.0376,-0.205671 0.84427,-0.648221 1.90804,-1.176946 2.73265,-1.731161 0.60834,-0.408866 1.44646,-0.240636 2.17454,-0.325046 0.46989,-0.05447 0.98182,-0.0999 1.50637,-0.14211 0.5049,-0.423188 1.40791,-0.586301 2.87166,-0.68988 3.03405,-0.07491 6.07005,-0.03415 9.10539,-0.02894 V 7.8258791 Z M 103.76731,78.692874 c 0.19347,2.345558 -0.33302,4.782831 -1.0573,7.019209 -0.10473,0.323392 -0.41783,0.444719 -0.78858,0.506947 -0.0247,0.258048 -0.0539,0.515493 -0.0832,0.773078 1.81527,0.202477 1.54764,0.615148 1.19631,4.191476 1.7975,7.933206 3.32767,8.748752 -0.66146,8.940536 0.90187,1.64903 1.87646,3.25721 2.95331,4.79971 0.43694,0.62588 0.88282,1.24704 1.36891,1.83555 0.32009,0.38753 0.68103,0.73898 1.03094,1.10019 0.53824,-0.18065 1.07809,-0.35366 1.60972,-0.5147 1.04681,-0.64329 2.09754,-1.2801 3.1502,-1.91358 0.0988,-0.58651 0.25117,-1.15881 0.44959,-1.71824 -0.30932,-0.38943 -0.58731,-0.80007 -0.81443,-1.2454 -0.27658,-0.54233 -0.1212,-1.17978 0.0847,-1.80247 -0.2093,-0.37283 -0.37618,-0.788448 -0.48162,-1.27538 -0.003,-0.01392 -0.005,-0.02696 -0.008,-0.04082 -0.37616,-0.560083 -0.67858,-1.168265 -0.81804,-1.815394 -0.25041,-1.161997 0.1131,-2.374207 0.1695,-3.56154 0.26293,-0.386538 0.50132,-0.793248 0.74517,-1.195277 -0.1574,-0.0714 -0.31449,-0.143782 -0.47336,-0.211354 -0.79597,-1.273173 -2.4059,-2.331395 -2.50682,-3.787884 -0.67073,-0.759343 -1.08648,-1.82985 -1.07487,-3.361552 0.0277,-3.654103 3.08418,-4.279006 5.39347,-5.099431 0.072,-0.02117 0.14448,-0.0405 0.21653,-0.0615 -0.041,-0.207756 -0.072,-0.42631 -0.0925,-0.656807 -2.43826,-0.200427 -4.87677,-0.400574 -7.31014,-0.652674 -0.0766,-0.0079 -1.16882,-0.129662 -2.19832,-0.252696 z m 9.80664,2.820498 c -0.0327,0.0092 -0.0785,0.04873 -0.0553,0.05323 0.0394,0.0076 0.0974,0.01336 0.14055,0.02066 -0.0197,-0.02371 -0.0407,-0.04691 -0.0599,-0.0708 -0.005,-0.0061 -0.0144,-0.0062 -0.0253,-0.0031 z M 80.38166,99.81148 c -0.01484,-0.0089 0.05368,0.29007 0.101285,0.46406 -0.0021,-0.0117 -0.0031,-0.0235 -0.0052,-0.0351 -0.02312,-0.13316 -0.03588,-0.270233 -0.08165,-0.397395 -0.0074,-0.02043 -0.01206,-0.03009 -0.01447,-0.03153 z m 14.3862,5.1015 c -0.02675,1.15859 -0.0554,2.31723 -0.08475,3.47575 0.841714,-0.0794 1.496264,-0.15245 2.033985,-0.20515 -0.683953,-1.0696 -1.331077,-2.16179 -1.949235,-3.2706 z" />
    </clipPath>
    <clipPath
       clipPathUnits="userSpaceOnUse"
       id="clipPath379">
      <path
         id="path381"
         style="fill:#ff0000;fill-opacity:1;fill-rule:nonzero;stroke:none;stroke-width:0.264583"
         d="m 32.605764,70.314057 v 54.378593 h 47.85186 c -0.0061,-1.02864 0.124439,-2.33598 0.196369,-3.2582 0.423984,-3.90574 0.909111,-7.80571 1.393198,-11.70471 -0.522878,-2.27641 -0.897303,-4.58772 -1.230416,-6.89829 -0.115263,-0.82126 -0.18492,-1.64897 -0.319879,-2.46755 -0.0048,0.0105 -0.0094,0.0218 -0.0155,0.016 -0.192133,-0.1774 -0.350438,-0.388418 -0.513665,-0.592729 -0.340175,-0.4258 -0.884439,-1.132663 -1.037662,-1.617991 -0.231071,-0.731909 -0.30363,-1.504836 -0.455268,-2.257227 0.462571,-1.039976 0.656259,-2.253379 1.327565,-3.158979 -0.797322,-0.372682 -1.546071,-0.805572 -1.66243,-1.582849 -0.462981,-3.092781 -0.302416,-4.588391 0.401527,-5.516975 -0.365919,-0.535599 -0.317125,-1.625846 -0.515216,-2.305804 -0.170389,-0.584878 -0.390292,-3.2033 -0.440282,-3.724836 -0.172397,-2.155696 -0.24271,-4.317929 -0.272852,-6.47971 -0.0089,-0.643988 -0.01828,-1.910363 -0.0067,-2.828766 z M 80.38166,99.81148 c -0.01484,-0.0089 0.05368,0.29007 0.101285,0.46406 -0.0021,-0.0117 -0.0031,-0.0235 -0.0052,-0.0351 -0.02312,-0.13316 -0.03588,-0.270233 -0.08165,-0.397395 -0.0074,-0.02043 -0.01206,-0.03009 -0.01447,-0.03153 z" />
    </clipPath>
  </defs>
  <g
     inkscape:label="Layer 1"
     inkscape:groupmode="layer"
     id="layer1">
    <path
       style="fill:#000000;fill-opacity:0;fill-rule:nonzero;stroke:#2a8d7c;stroke-width:6.61458;stroke-linecap:round;stroke-linejoin:round;stroke-dasharray:none;stroke-opacity:1;paint-order:normal"
       d="M 25.139058,26.755141 H 68.414151"
       id="path16753" />
    <path
       style="fill:#000000;fill-opacity:0;fill-rule:nonzero;stroke:#2a8d7c;stroke-width:6.52888;stroke-linecap:round;stroke-linejoin:bevel;stroke-dasharray:none;stroke-opacity:1;paint-order:normal"
       d="M 24.789739,40.042927 H 79.89648"
       id="path16755" />
    <path
       style="fill:#000000;fill-opacity:0;fill-rule:nonzero;stroke:#2a8d7c;stroke-width:6.61458;stroke-linecap:round;stroke-linejoin:bevel;stroke-dasharray:none;stroke-opacity:1;paint-order:normal"
       d="M 121.5653,52.971585 H 10.235188"
       id="path17495" />
    <text
       xml:space="preserve"
       style="font-size:69.5126px;fill:#2a8d7c;fill-opacity:0.975;fill-rule:nonzero;stroke:none;stroke-width:40.7298;stroke-linecap:round;stroke-linejoin:bevel;stroke-dasharray:none;stroke-opacity:1;paint-order:normal"
       x="93.443535"
       y="125.24841"
       id="text17661"
       transform="scale(0.99228271,1.0077773)"><tspan
         sodipodi:role="line"
         id="tspan17659"
         style="font-size:69.5126px;fill:#2a8d7c;fill-opacity:0.975;stroke:none;stroke-width:40.7298;stroke-opacity:1"
         x="93.443535"
         y="125.24841">?</tspan></text>
    <path
       style="fill:none;fill-opacity:0.975;stroke:#2a8d7c;stroke-width:6.50716;stroke-linecap:square;stroke-linejoin:round"
       d="M 121.5653,62.847645 V 52.073764 L 81.07346,11.581923 H 10.055623 V 121.74486 h 68.773279"
       id="path361" />
    <path
       style="fill:none;fill-opacity:0.975;stroke:#2a8d7c;stroke-width:6.50716;stroke-linecap:square;stroke-linejoin:round"
       d="M 35.19468,121.0266 V 72.723702 l 43.454658,0.179565"
       id="path387"
       sodipodi:nodetypes="ccc" />
  </g>
</svg>
